<svg width="40" height="20" viewBox="0 0 40 20" fill="none" xmlns="http://www.w3.org/2000/svg">
<rect width="40" height="20" rx="6" fill="#111111"/>
<path d="M26.4401 13.7455C27.3388 13.7455 27.7618 13.4243 28.1313 12.4505L29.75 8.19723H28.8128L27.7273 11.4878H27.7083L26.6228 8.20169H25.6591L27.2207 12.2499L27.137 12.4962C27.078 12.8486 26.7402 13.1 26.36 13.074C26.2874 13.074 26.1467 13.067 26.0896 13.0599V13.7284C26.2058 13.7433 26.3231 13.7504 26.4401 13.75V13.7455ZM23.3169 11.6156C22.8253 11.6156 22.5133 11.3927 22.5133 11.0555C22.5133 10.706 22.8142 10.5025 23.3894 10.4702L24.4138 10.4096V10.7238C24.3913 11.2416 23.9246 11.6445 23.372 11.6234C23.3534 11.6226 23.3351 11.6211 23.3169 11.6197V11.6156ZM23.0695 12.2755C23.6273 12.2897 24.149 12.0174 24.4293 11.5654H24.4483V12.2339H25.3015V9.46518C25.3015 8.66222 24.616 8.14487 23.5607 8.14487C22.5819 8.14487 21.858 8.66928 21.8314 9.39016H22.662C22.7611 9.02359 23.1329 8.78181 23.5341 8.82267C24.0979 8.82267 24.4138 9.0689 24.4138 9.52201V9.82878L23.2642 9.89303C22.1938 9.95357 21.6149 10.364 21.6149 11.0778C21.6142 11.8016 22.212 12.2796 23.0691 12.2796L23.0695 12.2755ZM18.1254 7.39799H19.1879C19.9879 7.39799 20.445 7.79761 20.445 8.50066C20.445 9.20372 19.9879 9.60668 19.1843 9.60668H18.1254V7.39799ZM17.2037 6.67005V12.2328H18.1254V10.3365H19.4016C20.4411 10.3888 21.3287 9.64197 21.3846 8.66816C21.3878 8.61283 21.3882 8.55786 21.3858 8.50252C21.435 7.53949 20.6417 6.72167 19.6137 6.67525C19.553 6.67265 19.4928 6.67302 19.4321 6.67562L17.2037 6.67005ZM14.1443 7.7081C13.6147 7.67951 13.1615 7.98999 12.9102 7.98999C12.6589 7.98999 12.2703 7.72259 11.8513 7.73002C11.2963 7.74339 10.7904 8.03122 10.522 8.48655C9.95074 9.40724 10.3733 10.7703 10.9256 11.5194C11.196 11.8908 11.5203 12.2975 11.9464 12.283C12.35 12.2689 12.5102 12.0367 12.9978 12.0367C13.4854 12.0367 13.6301 12.283 14.0567 12.2755C14.4984 12.2685 14.7767 11.9041 15.0478 11.5327C15.2389 11.2698 15.3876 10.982 15.4895 10.6785C14.9689 10.4654 14.6316 9.98514 14.6288 9.45293C14.6367 8.98348 14.8992 8.55043 15.3257 8.3042C15.0538 7.94246 14.6173 7.72036 14.1451 7.70476L14.1443 7.7081ZM13.8137 7.21675C13.5818 7.49047 13.227 7.64757 12.8539 7.64125C12.8301 7.30031 12.9538 6.96494 13.1968 6.71016C13.4387 6.44721 13.7796 6.28231 14.1483 6.25C14.1745 6.6006 14.0543 6.94674 13.8129 7.21563" fill="white"/>
</svg>
