<svg width="16" height="16" viewBox="0 0 16 16" fill="none" xmlns="http://www.w3.org/2000/svg">
<path d="M14.666 7.99999L3.33268 7.99999L3.33268 4.27343C3.33034 4.03335 3.3937 3.7972 3.51591 3.59053C3.63812 3.38386 3.81451 3.21454 4.02602 3.10091C4.25989 2.97416 4.5264 2.92047 4.79111 2.94677C4.65638 3.35481 4.63724 3.79218 4.73581 4.21043C4.83438 4.62868 5.04682 5.01147 5.34958 5.3164L6.05664 6.02343C6.11853 6.08535 6.19201 6.13447 6.27289 6.16798C6.35376 6.20149 6.44045 6.21874 6.528 6.21874C6.61554 6.21874 6.70223 6.20149 6.7831 6.16798C6.86398 6.13447 6.93746 6.08535 6.99935 6.02343L9.35612 3.66666C9.41804 3.60477 9.46716 3.53129 9.50067 3.45041C9.53418 3.36954 9.55143 3.28285 9.55143 3.19531C9.55143 3.10776 9.53418 3.02108 9.50067 2.9402C9.46716 2.85932 9.41804 2.78584 9.35612 2.72395L8.64909 2.01692C8.25557 1.62517 7.73505 1.38688 7.18136 1.34501C6.62767 1.30314 6.07723 1.46045 5.62928 1.78857C5.22539 1.63083 4.78908 1.57415 4.35829 1.62346C3.9275 1.67277 3.51529 1.82658 3.15749 2.07151C2.7997 2.31644 2.50716 2.64507 2.30531 3.02883C2.10347 3.41258 1.99844 3.83984 1.99935 4.27343L1.99935 7.99999H1.33268C1.15587 7.99999 0.986302 8.07023 0.861278 8.19526C0.736253 8.32028 0.666016 8.48985 0.666016 8.66666C0.666016 8.84347 0.736253 9.01304 0.861278 9.13806C0.986302 9.26309 1.15587 9.33333 1.33268 9.33333H1.99935L1.99935 11.3333C2.00062 11.7456 2.12946 12.1473 2.3682 12.4834C2.60693 12.8195 2.94384 13.0735 3.33268 13.2104V14C3.33268 14.1768 3.40292 14.3464 3.52794 14.4714C3.65297 14.5964 3.82254 14.6667 3.99935 14.6667C4.17616 14.6667 4.34573 14.5964 4.47075 14.4714C4.59578 14.3464 4.66602 14.1768 4.66602 14V13.3333L11.3327 13.3333V14C11.3327 14.1768 11.4029 14.3464 11.5279 14.4714C11.653 14.5964 11.8225 14.6667 11.9993 14.6667C12.1762 14.6667 12.3457 14.5964 12.4708 14.4714C12.5958 14.3464 12.666 14.1768 12.666 14V13.2105C13.0549 13.0735 13.3918 12.8195 13.6305 12.4834C13.8692 12.1473 13.9981 11.7456 13.9993 11.3333L13.9993 9.33333H14.666C14.8428 9.33333 15.0124 9.26309 15.1374 9.13806C15.2624 9.01304 15.3327 8.84347 15.3327 8.66666C15.3327 8.48985 15.2624 8.32028 15.1374 8.19526C15.0124 8.07023 14.8428 7.99999 14.666 7.99999ZM6.29232 2.95963C6.48 2.77244 6.73427 2.66731 6.99935 2.66731C7.26443 2.66731 7.51869 2.77244 7.70638 2.95963L7.94205 3.19531L6.52802 4.60937L6.29234 4.37369C6.10504 4.18606 5.99985 3.93178 5.99984 3.66666C5.99984 3.40155 6.10503 3.14727 6.29232 2.95963V2.95963ZM12.666 11.3333C12.6659 11.5101 12.5956 11.6796 12.4706 11.8046C12.3456 11.9296 12.1761 11.9999 11.9993 12L3.99935 12C3.82257 11.9999 3.65307 11.9296 3.52808 11.8046C3.40308 11.6796 3.3328 11.5101 3.33268 11.3333V9.33333H12.666L12.666 11.3333Z" fill="#3A73F2"/>
</svg>
