<svg width="16" height="16" viewBox="0 0 16 16" fill="none" xmlns="http://www.w3.org/2000/svg">
<path d="M4.66602 8.33333C5.06158 8.33333 5.44826 8.21604 5.77716 7.99627C6.10605 7.77651 6.3624 7.46415 6.51377 7.0987C6.66515 6.73325 6.70476 6.33111 6.62759 5.94315C6.55042 5.55519 6.35993 5.19882 6.08023 4.91912C5.80052 4.63941 5.44416 4.44893 5.0562 4.37176C4.66823 4.29459 4.2661 4.3342 3.90065 4.48557C3.5352 4.63695 3.22284 4.89329 3.00308 5.22219C2.78331 5.55109 2.66602 5.93777 2.66602 6.33333C2.66602 6.86377 2.87673 7.37247 3.2518 7.74755C3.62687 8.12262 4.13558 8.33333 4.66602 8.33333V8.33333ZM4.66602 5.66667C4.79787 5.66667 4.92676 5.70577 5.0364 5.77902C5.14603 5.85227 5.23148 5.95639 5.28194 6.07821C5.33239 6.20003 5.3456 6.33407 5.31987 6.46339C5.29415 6.59271 5.23065 6.7115 5.13742 6.80474C5.04418 6.89797 4.9254 6.96147 4.79608 6.98719C4.66675 7.01291 4.53271 6.99971 4.41089 6.94925C4.28908 6.89879 4.18496 6.81335 4.1117 6.70371C4.03845 6.59408 3.99935 6.46519 3.99935 6.33333C3.99935 6.15652 4.06959 5.98695 4.19461 5.86193C4.31964 5.7369 4.4892 5.66667 4.66602 5.66667ZM13.3327 4.33333L7.99935 4.33333C7.82254 4.33333 7.65297 4.40357 7.52794 4.5286C7.40292 4.65362 7.33268 4.82319 7.33268 5L7.33268 9H1.99935L1.99935 3.66667C1.99935 3.48986 1.92911 3.32029 1.80409 3.19526C1.67906 3.07024 1.50949 3 1.33268 3C1.15587 3 0.986302 3.07024 0.861278 3.19526C0.736253 3.32029 0.666016 3.48986 0.666016 3.66667L0.666016 12.3333C0.666016 12.5101 0.736253 12.6797 0.861278 12.8047C0.986302 12.9298 1.15587 13 1.33268 13C1.50949 13 1.67906 12.9298 1.80409 12.8047C1.92911 12.6797 1.99935 12.5101 1.99935 12.3333L1.99935 10.3333L13.9993 10.3333L13.9993 12.3333C13.9993 12.5101 14.0696 12.6797 14.1946 12.8047C14.3196 12.9298 14.4892 13 14.666 13C14.8428 13 15.0124 12.9298 15.1374 12.8047C15.2624 12.6797 15.3327 12.5101 15.3327 12.3333L15.3327 6.33333C15.3327 5.8029 15.122 5.29419 14.7469 4.91912C14.3718 4.54405 13.8631 4.33333 13.3327 4.33333ZM13.9993 9L8.66602 9V5.66667L13.3327 5.66667C13.5095 5.66667 13.6791 5.7369 13.8041 5.86193C13.9291 5.98695 13.9993 6.15652 13.9993 6.33333V9Z" fill="#3A73F2"/>
</svg>
