<svg width="11" height="17" viewBox="0 0 11 17" fill="none" xmlns="http://www.w3.org/2000/svg">
<path d="M3.20837 5.72917C3.48032 5.72917 3.74617 5.64852 3.97228 5.49744C4.1984 5.34635 4.37464 5.1316 4.47871 4.88036C4.58278 4.62911 4.61001 4.35264 4.55695 4.08592C4.5039 3.81919 4.37294 3.57419 4.18065 3.38189C3.98835 3.1896 3.74335 3.05864 3.47662 3.00559C3.2099 2.95253 2.93343 2.97976 2.68218 3.08383C2.43094 3.1879 2.21619 3.36414 2.0651 3.59026C1.91402 3.81638 1.83337 4.08222 1.83337 4.35417C1.83337 4.71884 1.97824 5.06858 2.2361 5.32644C2.49396 5.5843 2.8437 5.72917 3.20837 5.72917ZM3.20837 3.89583C3.29902 3.89583 3.38764 3.92271 3.46301 3.97308C3.53838 4.02344 3.59713 4.09502 3.63182 4.17877C3.66651 4.26252 3.67559 4.35468 3.6579 4.44358C3.64022 4.53249 3.59656 4.61416 3.53246 4.67826C3.46837 4.74236 3.3867 4.78601 3.29779 4.80369C3.20888 4.82138 3.11673 4.8123 3.03298 4.77761C2.94923 4.74292 2.87765 4.68418 2.82728 4.6088C2.77692 4.53343 2.75004 4.44482 2.75004 4.35417C2.75004 4.23261 2.79833 4.11603 2.88428 4.03008C2.97024 3.94412 3.08682 3.89583 3.20837 3.89583ZM9.16671 2.97917L5.50004 2.97917C5.37848 2.97917 5.2619 3.02746 5.17595 3.11341C5.09 3.19936 5.04171 3.31594 5.04171 3.4375L5.04171 6.1875L1.37504 6.1875L1.37504 2.52083C1.37504 2.39928 1.32675 2.2827 1.2408 2.19674C1.15484 2.11079 1.03826 2.0625 0.916707 2.0625C0.79515 2.0625 0.678571 2.11079 0.592617 2.19674C0.506663 2.2827 0.458374 2.39928 0.458374 2.52083L0.458374 8.47917C0.458374 8.60072 0.506663 8.7173 0.592617 8.80326C0.678571 8.88921 0.79515 8.9375 0.916707 8.9375C1.03826 8.9375 1.15484 8.88921 1.2408 8.80326C1.32675 8.7173 1.37504 8.60072 1.37504 8.47917L1.37504 7.10417L9.62504 7.10417V8.47917C9.62504 8.60072 9.67333 8.7173 9.75928 8.80326C9.84524 8.88921 9.96182 8.9375 10.0834 8.9375C10.2049 8.9375 10.3215 8.88921 10.4075 8.80326C10.4934 8.7173 10.5417 8.60072 10.5417 8.47917V4.35417C10.5417 3.98949 10.3968 3.63976 10.139 3.38189C9.88112 3.12403 9.53138 2.97917 9.16671 2.97917ZM9.62504 6.1875H5.95837L5.95837 3.89583H9.16671C9.28827 3.89583 9.40485 3.94412 9.4908 4.03008C9.57675 4.11603 9.62504 4.23261 9.62504 4.35417V6.1875Z" fill="#3A73F2" fill-opacity="0.4"/>
<path d="M3.20837 11.7292C3.48032 11.7292 3.74617 11.6485 3.97228 11.4974C4.1984 11.3464 4.37464 11.1316 4.47871 10.8804C4.58278 10.6291 4.61001 10.3526 4.55695 10.0859C4.5039 9.81919 4.37294 9.57419 4.18065 9.38189C3.98835 9.1896 3.74335 9.05864 3.47662 9.00559C3.2099 8.95253 2.93343 8.97976 2.68218 9.08383C2.43094 9.1879 2.21619 9.36414 2.0651 9.59026C1.91402 9.81638 1.83337 10.0822 1.83337 10.3542C1.83337 10.7188 1.97824 11.0686 2.2361 11.3264C2.49396 11.5843 2.8437 11.7292 3.20837 11.7292ZM3.20837 9.89583C3.29902 9.89583 3.38764 9.92271 3.46301 9.97308C3.53838 10.0234 3.59713 10.095 3.63182 10.1788C3.66651 10.2625 3.67559 10.3547 3.6579 10.4436C3.64022 10.5325 3.59656 10.6142 3.53246 10.6783C3.46837 10.7424 3.3867 10.786 3.29779 10.8037C3.20888 10.8214 3.11673 10.8123 3.03298 10.7776C2.94923 10.7429 2.87765 10.6842 2.82728 10.6088C2.77692 10.5334 2.75004 10.4448 2.75004 10.3542C2.75004 10.2326 2.79833 10.116 2.88428 10.0301C2.97024 9.94412 3.08682 9.89583 3.20837 9.89583ZM9.16671 8.97917L5.50004 8.97917C5.37848 8.97917 5.2619 9.02746 5.17595 9.11341C5.09 9.19936 5.04171 9.31594 5.04171 9.4375L5.04171 12.1875H1.37504L1.37504 8.52083C1.37504 8.39928 1.32675 8.2827 1.2408 8.19674C1.15484 8.11079 1.03826 8.0625 0.916707 8.0625C0.79515 8.0625 0.678571 8.11079 0.592617 8.19674C0.506663 8.2827 0.458374 8.39928 0.458374 8.52083L0.458374 14.4792C0.458374 14.6007 0.506663 14.7173 0.592617 14.8033C0.678571 14.8892 0.79515 14.9375 0.916707 14.9375C1.03826 14.9375 1.15484 14.8892 1.2408 14.8033C1.32675 14.7173 1.37504 14.6007 1.37504 14.4792L1.37504 13.1042H9.62504V14.4792C9.62504 14.6007 9.67333 14.7173 9.75928 14.8033C9.84524 14.8892 9.96182 14.9375 10.0834 14.9375C10.2049 14.9375 10.3215 14.8892 10.4075 14.8033C10.4934 14.7173 10.5417 14.6007 10.5417 14.4792V10.3542C10.5417 9.98949 10.3968 9.63976 10.139 9.38189C9.88112 9.12403 9.53138 8.97917 9.16671 8.97917ZM9.62504 12.1875H5.95837L5.95837 9.89583H9.16671C9.28827 9.89583 9.40485 9.94412 9.4908 10.0301C9.57675 10.116 9.62504 10.2326 9.62504 10.3542V12.1875Z" fill="#3A73F2"/>
</svg>
