<svg width="17" height="17" viewBox="0 0 17 17" fill="none" xmlns="http://www.w3.org/2000/svg">
<path d="M1.41663 14.875H15.5833" stroke="#3A73F2" stroke-linecap="round" stroke-linejoin="round"/>
<path d="M4.95837 9.20825H3.54171C3.15051 9.20825 2.83337 9.52538 2.83337 9.91659V14.1666C2.83337 14.5578 3.15051 14.8749 3.54171 14.8749H4.95837C5.34958 14.8749 5.66671 14.5578 5.66671 14.1666V9.91659C5.66671 9.52538 5.34958 9.20825 4.95837 9.20825Z" stroke="#3A73F2" stroke-linejoin="round"/>
<path d="M4.25 12.0417H4.60417" stroke="#3A73F2" stroke-width="0.5" stroke-linecap="round" stroke-linejoin="round"/>
<path d="M13.4583 1.41675H6.37496C5.98376 1.41675 5.66663 1.73388 5.66663 2.12508V14.1667C5.66663 14.5579 5.98376 14.8751 6.37496 14.8751H13.4583C13.8495 14.8751 14.1666 14.5579 14.1666 14.1667V2.12508C14.1666 1.73388 13.8495 1.41675 13.4583 1.41675Z" stroke="#3A73F2" stroke-linejoin="round"/>
<path d="M9.20829 3.54175H7.79163V4.95841H9.20829V3.54175Z" fill="#3A73F2"/>
<path d="M12.0417 3.54175H10.625V4.95841H12.0417V3.54175Z" fill="#3A73F2"/>
<path d="M9.20829 6.02075H7.79163V7.43742H9.20829V6.02075Z" fill="#3A73F2"/>
<path d="M12.0417 6.02075H10.625V7.43742H12.0417V6.02075Z" fill="#3A73F2"/>
<path d="M12.0417 8.5H10.625V9.91667H12.0417V8.5Z" fill="#3A73F2"/>
<path d="M12.0417 10.9792H10.625V12.3959H12.0417V10.9792Z" fill="#3A73F2"/>
</svg>
