<svg width="40" height="13" viewBox="0 0 40 13" fill="none" xmlns="http://www.w3.org/2000/svg">
<g style="mix-blend-mode:darken">
<path fill-rule="evenodd" clip-rule="evenodd" d="M0.846924 12.9999H17.2309V7.41211H0.846924V12.9999Z" fill="#81BC41"/>
<path fill-rule="evenodd" clip-rule="evenodd" d="M0.846924 5.58776H17.2309V0H0.846924V5.58776Z" fill="#00A0DD"/>
<path fill-rule="evenodd" clip-rule="evenodd" d="M37.0408 0.0864766C37.0333 0.0856601 37.0254 0.0859428 37.0178 0.0862149L37.007 0.0864766C36.2767 0.0864766 35.524 0.287358 35.2566 0.683541C35.1106 0.875446 35.0313 1.11733 35.027 1.40118L35.0263 1.40288V3.31126C35.0263 3.47429 34.9954 3.53591 34.9872 3.5512L34.9463 3.6349H32.6378V2.30467H32.6352C32.607 0.904317 31.7844 0.135969 30.5922 0.135969H30.452H29.4287L29.4038 0.306044C29.3659 0.564284 29.3348 0.77652 29.2948 1.05716H30.452C31.0587 1.05716 31.3777 1.57877 31.3777 2.37769V3.71545L31.2948 3.67396C31.2796 3.6662 31.182 3.6349 31.0204 3.6349H29.0237C28.9864 3.88964 28.9377 4.22105 28.8847 4.55633H35.0263C35.1512 4.53178 35.2903 4.50793 35.4271 4.48447L35.4271 4.48446C35.5174 4.46898 35.6067 4.45366 35.6903 4.43843C36.0004 4.59151 36.5789 4.67206 36.9793 4.67206C38.3141 4.67206 39.1765 3.77464 39.1765 2.38473C39.1765 1.01155 38.3399 0.114134 37.0408 0.0864766ZM37.0446 3.60802C36.8617 3.60802 36.5504 3.59104 36.3041 3.54179L36.2333 3.52748V1.67442C36.2333 1.5189 36.2039 1.4255 36.1964 1.4107L36.1567 1.33088L36.2376 1.29522C36.2494 1.28998 36.2616 1.28587 36.2739 1.28175C36.2821 1.279 36.2903 1.27624 36.2984 1.27314L36.3114 1.26465C36.3353 1.25599 36.3589 1.24874 36.3823 1.24154L36.3824 1.24153L36.3947 1.23772L36.411 1.23248L36.411 1.23247C36.418 1.23017 36.4249 1.22789 36.4321 1.22583C36.6622 1.16144 36.8775 1.15517 37.0113 1.15127C37.0408 1.15041 37.0663 1.14967 37.0872 1.14844H37.093C37.8715 1.14844 37.9609 1.8457 37.9609 2.37022C37.9609 3.39307 37.4626 3.60802 37.0446 3.60802ZM33.3236 6.69076L33.453 6.66868C33.8289 6.60584 34.217 6.54034 34.5939 6.47168V11.8838C34.5939 12.2633 34.4556 12.4421 34.0679 12.5675C33.647 12.7068 33.2273 12.7662 32.6649 12.7662C31.332 12.7662 30.5673 11.9782 30.5673 10.6048C30.5673 9.60451 30.8964 8.41135 32.4642 8.41135C32.7528 8.41135 33.0504 8.49869 33.1774 8.53605L33.2116 8.54552L33.3236 8.57802V6.69076ZM33.2554 11.7679L33.3264 11.7538V9.50164L33.2633 9.48296C32.9744 9.39707 32.8212 9.38203 32.6892 9.37402H32.6836C31.9051 9.37402 31.8157 10.0713 31.8157 10.5961C31.8157 11.6194 32.314 11.8339 32.732 11.8339C32.9149 11.8339 33.0094 11.8171 33.2554 11.7679ZM35.8332 8.66718C36.4539 8.47358 36.9468 8.3877 37.4309 8.3877C38.5775 8.3877 39.1587 8.88092 39.1587 9.85258V12.858C38.7978 12.7871 38.4271 12.7209 38.0658 12.6564L38.0224 12.6487L37.9046 12.628L37.886 12.6246L37.8675 12.629C37.5094 12.7185 37.1022 12.7739 36.8037 12.7739C35.8477 12.7739 35.2774 12.3054 35.2774 11.5198C35.2774 10.603 35.8978 10.1765 37.2299 10.1765H37.9612V9.92512C37.9612 9.35086 37.4352 9.35086 37.2622 9.35086C36.8801 9.35086 36.3676 9.4382 35.9566 9.57333L35.566 9.7024L35.4316 8.79043L35.8332 8.66718ZM37.9106 11.8067L37.9761 11.7892V10.9277H37.1966C36.5953 10.9277 36.5054 11.2676 36.5054 11.47C36.5054 11.7788 36.7251 11.9639 37.0921 11.9639C37.2472 11.9639 37.4463 11.9319 37.6696 11.8715L37.9106 11.8067ZM28.1439 8.38672C27.6592 8.38672 27.1664 8.47309 26.5462 8.66621L26.1453 8.78921L26.2795 9.70143L26.6701 9.5726C27.0797 9.43722 27.5917 9.35037 27.9753 9.35037C28.1483 9.35037 28.6745 9.35037 28.6745 9.92414V10.1752H27.943C26.6111 10.1752 25.9904 10.602 25.9904 11.5188C25.9904 12.3042 26.5614 12.7731 27.5175 12.7731C27.8167 12.7731 28.2239 12.7173 28.581 12.6283L28.5993 12.6234L28.6176 12.6266L28.735 12.6474L28.7854 12.6565L28.7856 12.6565L28.7861 12.6566C29.1452 12.7207 29.5136 12.7864 29.8717 12.8566V9.8516C29.8717 8.87946 29.2901 8.38672 28.1439 8.38672ZM28.6888 11.7897L28.623 11.8072L28.3821 11.872C28.1597 11.9319 27.9602 11.9639 27.8048 11.9639C27.4371 11.9639 27.2181 11.7793 27.2181 11.4709C27.2181 11.2684 27.3077 10.9287 27.9089 10.9287H28.6888V11.7897ZM22.3603 8.68688C22.5482 8.5993 23.051 8.39551 23.657 8.39551C24.7658 8.39551 25.3043 8.88267 25.3043 9.88465V12.7249H24.0509V10.0137C24.0509 9.53262 23.749 9.43145 23.4963 9.43145C23.2751 9.43145 23.0657 9.47464 22.8742 9.56052L22.7891 9.59789L22.8306 9.68134C22.8385 9.69687 22.8694 9.79489 22.8694 9.95743V12.7249H21.616V10.0137C21.616 9.62748 21.4293 9.43145 21.0616 9.43145C20.9141 9.43145 20.7631 9.44844 20.504 9.53287L20.4426 9.553V12.7249H19.1726V9.29389C19.1726 8.92197 19.3307 8.72813 19.7374 8.60197C20.2123 8.46126 20.6484 8.39551 21.1098 8.39551C21.6341 8.39551 22.0143 8.48794 22.2709 8.67766L22.3128 8.70896L22.3603 8.68688ZM26.3266 5.1129H26.2698V5.11387L25.7816 5.1129H24.5114V5.11072L22.3815 5.10683C22.3815 5.10708 22.3812 5.10732 22.3812 5.10732H21.3584H21.2184C20.026 5.10732 19.2034 4.43941 19.1753 3.03906L19.1726 2.46505V2.41337H19.1753C19.2034 1.01302 20.026 0.208283 21.2184 0.208283H21.3584H22.8113C22.798 0.298008 22.786 0.379551 22.7745 0.457543C22.7423 0.675634 22.7141 0.865951 22.6749 1.12972H21.5027C20.7992 1.12972 20.4689 1.65012 20.4689 2.48664V3.04246C20.4689 3.84138 20.8963 4.19098 21.5027 4.19098H22.2183V4.18831L26.1524 4.19704H26.3589C26.9598 4.19704 27.0497 3.77903 27.0497 3.57693C27.0497 3.26833 26.8304 2.97453 26.4632 2.97453H25.2342C24.2779 2.97453 23.7071 2.50338 23.7071 1.59893C23.7071 0.682344 24.3591 0.135742 25.6599 0.135742H28.4515C28.4399 0.212605 28.4293 0.28334 28.4192 0.350704C28.3837 0.587823 28.3544 0.783167 28.3113 1.05693H25.6274C25.0268 1.05693 24.9369 1.35826 24.9369 1.59893C24.9369 1.95484 25.1559 2.16494 25.5231 2.16494H26.7524C27.7087 2.16494 28.2795 2.7916 28.2795 3.57693C28.2795 4.66941 27.659 5.1129 26.3266 5.1129Z" fill="#231F20"/>
</g>
</svg>
