<svg width="72" height="72" viewBox="0 0 72 72" fill="none" xmlns="http://www.w3.org/2000/svg">
<path d="M62.6694 30.9099C63.0486 28.3662 62.9243 25.7621 62.2964 23.2581C61.467 19.9503 59.7588 16.8177 57.1721 14.231C54.5853 11.6442 51.4527 9.93614 48.1451 9.10673C45.6411 8.47886 43.0368 8.35451 40.4931 8.73368" stroke="#3A73F2" stroke-width="2" stroke-linecap="round" stroke-linejoin="round"/>
<path d="M51.2844 29.7052C51.6906 26.9803 50.8449 24.1048 48.7473 22.0072C46.6496 19.9096 43.7741 19.0637 41.0493 19.4699" stroke="#3A73F2" stroke-width="2" stroke-linecap="round" stroke-linejoin="round"/>
<path d="M21.5633 13.1914C22.6532 13.1914 23.6573 13.7824 24.1862 14.7353L27.8559 21.3455C28.3364 22.211 28.3589 23.2579 27.9162 24.1433L24.381 31.2137C24.381 31.2137 25.4055 36.481 29.6931 40.7686C33.9807 45.0562 39.2303 46.063 39.2303 46.063L46.2996 42.5284C47.1857 42.0853 48.2333 42.1082 49.0991 42.5896L55.728 46.2751C56.6799 46.8043 57.2703 47.8079 57.2703 48.8971V56.5073C57.2703 60.3829 53.6705 63.182 49.9983 61.9429C42.4565 59.3981 30.7494 54.5528 23.3292 47.1325C15.9089 39.7123 11.0636 28.0052 8.51877 20.4634C7.27974 16.7912 10.0789 13.1914 13.9543 13.1914H21.5633Z" stroke="#3A73F2" stroke-width="3" stroke-linejoin="round"/>
</svg>
