<svg width="24" height="24" viewBox="0 0 24 24" fill="none" xmlns="http://www.w3.org/2000/svg">
<path d="M10.679 9.56983C7.7347 9.42778 5.6881 10.4775 4.53919 12.7191C2.81585 16.0814 4.24013 21.5832 9.9894 21.5832C15.7387 21.5832 15.905 16.0276 15.905 15.4456C15.905 15.0576 15.905 12.8881 15.905 8.93718C17.1347 9.71603 18.1715 10.1849 19.0154 10.3437C19.8593 10.5025 20.3958 10.5729 20.6249 10.5549V7.31703C19.8443 7.22293 19.1693 7.04353 18.5999 6.77893C17.7457 6.38203 16.0519 5.28043 16.0519 3.66592C16.053 3.67381 16.053 3.25734 16.0519 2.4165H12.4929C12.4823 10.3245 12.4823 14.6675 12.4929 15.4456C12.5088 16.6126 11.6034 18.2451 9.76775 18.2451C7.9321 18.2451 7.02675 16.6139 7.02675 15.5618C7.02675 14.9177 7.248 13.9841 8.16255 13.2928C8.7049 12.8828 9.45765 12.7191 10.679 12.7191C10.679 12.3413 10.679 11.2915 10.679 9.56983Z" stroke="#3A73F2" stroke-width="1.5" stroke-linejoin="round"/>
</svg>
